<?xml version="1.0" standalone="no"?>
<!DOCTYPE svg PUBLIC "-//W3C//DTD SVG 20010904//EN"
 "http://www.w3.org/TR/2001/REC-SVG-20010904/DTD/svg10.dtd">
<svg version="1.0" xmlns="http://www.w3.org/2000/svg"
 width="1080.000000pt" height="1080.000000pt" viewBox="0 0 1080.000000 1080.000000"
 preserveAspectRatio="xMidYMid meet">

<g transform="translate(0.000000,1080.000000) scale(0.100000,-0.100000)"
fill="#000000" stroke="none">
<path d="M5305 9220 c-3 -5 -43 -10 -88 -10 -95 0 -287 -22 -402 -45 -399 -81
-765 -244 -1080 -480 -570 -428 -942 -1053 -1045 -1756 -35 -240 -29 -589 16
-839 88 -493 325 -969 663 -1333 234 -252 491 -444 796 -592 188 -91 330 -143
515 -189 218 -53 330 -67 575 -73 462 -11 841 71 1237 268 712 354 1220 982
1411 1745 60 239 72 346 71 634 0 349 -31 544 -135 857 -128 384 -345 730
-643 1028 -317 316 -667 528 -1086 659 -220 68 -496 116 -677 116 -45 0 -85 5
-88 10 -3 6 -12 10 -20 10 -8 0 -17 -4 -20 -10z m245 -111 c602 -56 1143 -306
1566 -724 192 -190 330 -371 453 -595 290 -526 385 -1172 261 -1767 -102 -488
-344 -931 -704 -1288 -691 -685 -1701 -917 -2630 -604 -378 127 -689 321 -982
614 -398 395 -638 873 -726 1440 -29 189 -31 553 -5 725 64 411 192 745 412
1075 330 493 841 868 1409 1031 306 88 643 121 946 93z"/>
<path d="M6085 7994 c-44 -25 -177 -95 -295 -154 -254 -127 -323 -175 -364
-250 -28 -51 -29 -57 -23 -147 5 -94 5 -96 -28 -157 -18 -33 -43 -94 -55 -133
-12 -40 -26 -73 -30 -73 -15 0 -88 203 -104 289 -20 104 -20 210 -1 283 8 31
37 116 65 189 28 72 49 133 48 135 -5 4 -128 -263 -150 -324 -14 -39 -21 -93
-25 -172 -7 -166 18 -281 123 -552 20 -52 18 -60 -13 -52 -14 4 -32 29 -53 70
-36 74 -93 127 -155 144 -61 17 -224 8 -450 -24 -99 -14 -220 -28 -270 -32
-123 -8 -122 -7 -83 -54 69 -86 236 -194 401 -259 329 -130 607 -104 607 57 0
17 4 32 9 32 5 0 28 -15 51 -32 33 -26 59 -65 122 -183 103 -195 146 -291 157
-351 25 -132 -51 -427 -214 -834 l-62 -155 -323 -5 c-289 -4 -321 -7 -305 -20
10 -8 29 -37 41 -65 41 -87 29 -182 -32 -262 l-25 -34 868 3 868 3 44 25 c64
36 83 77 79 172 -4 90 -21 121 -88 156 -44 22 -49 22 -437 22 -279 0 -393 3
-393 11 0 6 13 57 29 113 39 134 77 286 102 405 24 115 37 138 169 275 112
116 152 139 268 156 78 11 156 1 195 -25 46 -29 60 -73 55 -163 -6 -98 -43
-183 -97 -219 -60 -41 -160 -25 -225 35 -22 21 -26 22 -18 7 24 -46 118 -104
170 -105 67 0 147 62 193 152 92 182 65 312 -83 387 -58 29 -79 34 -161 39
-151 8 -242 -22 -353 -117 -32 -28 -62 -51 -65 -51 -3 0 -11 30 -17 66 -15 89
-54 168 -217 434 -133 218 -138 227 -147 300 -15 117 10 305 43 326 6 3 26 -9
45 -27 32 -31 41 -34 92 -34 41 0 71 7 104 24 182 93 402 385 482 639 25 79
34 162 19 162 -5 0 -44 -21 -88 -46z m45 -49 c0 -25 -41 -137 -78 -210 -77
-155 -189 -297 -314 -398 -75 -60 -106 -76 -162 -83 -41 -6 -48 -4 -75 24 -41
41 -40 72 5 122 47 52 74 58 116 29 l33 -23 -22 25 c-29 32 -29 43 2 57 35 16
42 15 78 -10 l32 -22 -24 27 c-27 30 -23 52 14 69 20 9 28 8 42 -4 34 -29 48
-31 23 -4 l-25 27 23 18 c21 15 22 19 8 30 -10 9 -16 31 -17 60 -1 45 -1 46
-9 12 -5 -19 -4 -45 1 -58 13 -36 12 -41 -21 -58 -43 -22 -50 -19 -51 28 0 32
-2 37 -9 22 -5 -11 -9 -35 -9 -52 -1 -25 -7 -36 -31 -48 -46 -24 -60 -20 -61
18 -1 29 -2 28 -11 -13 -9 -40 -17 -49 -70 -84 -32 -21 -62 -35 -66 -31 -4 4
-7 35 -7 69 0 74 30 129 96 173 41 28 567 301 582 302 4 1 7 -6 7 -14z m-1092
-910 c56 -24 112 -86 112 -125 0 -16 -76 -12 -90 5 -7 9 -32 30 -54 47 l-41
32 33 -35 c17 -19 32 -40 32 -45 0 -6 -28 -16 -62 -22 l-63 -12 -45 43 c-76
72 -97 85 -47 28 26 -29 47 -57 47 -62 0 -5 -21 -9 -46 -9 -40 0 -53 6 -102
47 -46 38 -51 41 -26 13 18 -19 37 -46 44 -59 12 -22 10 -27 -19 -53 -41 -36
-27 -36 32 2 37 23 59 30 97 30 28 0 50 -3 50 -7 0 -4 -15 -23 -32 -42 -33
-34 -33 -34 22 7 35 25 72 44 98 48 50 8 53 -1 15 -48 -26 -30 -24 -30 24 10
l51 42 51 -11 c55 -12 71 -29 71 -76 0 -38 -25 -72 -66 -89 -63 -26 -291 -11
-369 25 -11 5 -46 17 -77 27 -32 9 -58 21 -58 25 0 5 -7 9 -15 9 -22 0 -170
76 -235 120 -60 41 -86 67 -77 77 4 3 77 14 164 24 197 23 315 38 328 44 6 2
56 4 113 4 72 1 114 -4 140 -14z"/>
<path d="M5175 3361 l40 -6 3 -182 c2 -156 0 -183 -12 -183 -13 0 -13 -4 0
-35 10 -26 14 -78 13 -207 0 -95 -4 -182 -8 -193 -5 -12 -3 -25 6 -33 7 -7 13
-24 13 -38 0 -24 1 -24 100 -24 l100 0 0 455 0 455 -147 -1 c-82 -1 -130 -5
-108 -8z"/>
<path d="M5642 3315 c-57 -48 -48 -148 17 -175 43 -17 118 -8 145 19 16 17 21
34 21 77 0 49 -4 59 -28 80 -40 34 -114 34 -155 -1z"/>
<path d="M3185 3306 c95 -25 149 -68 219 -176 l36 -55 0 76 c0 114 -6 137 -36
131 -14 -2 -50 3 -82 11 -31 9 -86 18 -122 21 l-65 5 50 -13z"/>
<path d="M3051 3294 c-119 -52 -183 -183 -151 -312 25 -106 84 -152 269 -212
151 -48 198 -81 210 -145 14 -78 -19 -133 -96 -160 -31 -12 -33 -14 -13 -14
66 -1 156 65 194 141 22 43 26 66 26 132 0 97 -19 146 -75 195 -46 40 -90 59
-214 95 -161 47 -201 78 -201 157 0 39 6 55 30 83 18 20 46 38 68 44 28 7 31
10 12 10 -14 0 -40 -6 -59 -14z"/>
<path d="M3780 3224 c-30 -9 -72 -20 -92 -25 l-38 -10 0 -79 0 -80 -37 -1 -38
-2 35 -6 35 -6 5 -240 c4 -203 8 -245 22 -266 47 -73 222 -89 298 -28 21 17
22 19 3 10 -12 -6 -38 -11 -58 -11 -59 0 -65 27 -65 304 l0 235 83 4 82 3 -82
2 -83 2 0 105 c0 58 -3 105 -7 104 -5 0 -33 -7 -63 -15z"/>
<path d="M4965 3021 c-91 -41 -135 -132 -135 -281 0 -181 63 -280 188 -297 46
-6 112 11 144 37 l23 19 -31 -11 c-45 -16 -79 -4 -95 34 -19 44 -19 374 -1
436 16 53 48 72 93 55 41 -16 36 -5 -6 13 -47 19 -132 17 -180 -5z"/>
<path d="M6179 3030 c-90 -16 -161 -67 -203 -145 -18 -34 -21 -57 -21 -150 0
-94 3 -116 22 -150 29 -54 68 -89 128 -117 71 -32 218 -31 290 1 107 48 147
113 153 251 6 140 -21 216 -97 267 -60 41 -181 60 -272 43z m120 -19 c30 -30
36 -79 36 -298 0 -189 -1 -203 -21 -230 -36 -48 -102 -43 -131 10 -15 27 -18
60 -18 227 0 107 4 212 8 233 10 49 39 77 77 77 17 0 39 -9 49 -19z"/>
<path d="M7521 3025 c-80 -25 -130 -97 -131 -188 0 -104 45 -146 215 -198 106
-33 145 -58 145 -95 0 -61 -44 -88 -141 -87 -90 0 -143 29 -186 103 l-33 54 0
-78 0 -79 21 18 c18 17 24 18 52 6 83 -34 141 -44 200 -33 116 22 171 85 171
198 -1 110 -55 163 -209 205 -135 36 -168 63 -145 119 13 31 37 45 100 58 35
8 38 10 15 10 -16 0 -50 -5 -74 -13z"/>
<path d="M4090 3021 l35 -6 5 -237 c5 -221 6 -238 26 -265 59 -78 202 -96 276
-33 l23 20 -30 -11 c-36 -13 -70 -5 -81 18 -5 10 -10 132 -12 271 l-4 252
-136 -1 c-75 -1 -121 -4 -102 -8z"/>
<path d="M4458 3023 l33 -4 -1 -237 c-1 -130 1 -244 4 -252 3 -8 6 -28 8 -45
l3 -30 135 -1 c74 -1 118 1 98 3 l-38 4 0 285 0 284 -137 -2 c-76 0 -123 -3
-105 -5z"/>
<path d="M5573 3023 l37 -4 0 -279 0 -279 -37 -4 c-21 -2 43 -4 142 -4 99 0
163 2 143 4 l-38 4 0 285 0 284 -142 -2 c-79 -1 -126 -3 -105 -5z"/>
<path d="M6632 3023 l37 -4 3 -227 c3 -253 10 -283 72 -321 70 -43 191 -34
237 16 l24 26 -25 -16 c-32 -22 -56 -21 -80 3 -19 19 -20 33 -20 275 l0 255
-142 -2 c-79 -1 -126 -3 -106 -5z"/>
<path d="M7005 3021 l30 -6 3 -190 c1 -105 -2 -210 -7 -235 -5 -24 -6 -49 -1
-55 4 -5 11 -27 15 -47 l7 -38 132 2 c72 1 114 3 94 5 l-38 4 0 285 0 284
-132 -1 c-73 -1 -119 -4 -103 -8z"/>
<path d="M7661 3016 c52 -18 78 -39 110 -88 l29 -43 0 70 c0 54 -3 66 -12 57
-16 -16 -48 -15 -91 3 -20 8 -44 15 -54 15 -10 -1 -2 -7 18 -14z"/>
<path d="M2890 2663 c0 -27 3 -84 6 -126 6 -68 8 -74 24 -65 13 8 40 7 101 -5
46 -9 116 -19 154 -22 l70 -5 -55 13 c-30 7 -70 21 -89 31 -52 28 -130 104
-173 170 l-38 59 0 -50z"/>
<path d="M2645 2053 c43 -6 47 -14 31 -64 -7 -24 -22 -73 -31 -109 -10 -36
-23 -85 -30 -110 -7 -25 -20 -75 -30 -112 -17 -66 -17 -67 -53 -71 -21 -2 13
-4 73 -4 61 1 88 2 61 4 l-48 4 7 37 c3 20 13 62 22 92 9 30 17 61 19 68 2 7
21 12 48 12 115 0 198 38 230 103 25 54 20 85 -18 123 l-34 34 -138 -1 c-77
-1 -125 -4 -109 -6z m238 -20 c38 -44 27 -134 -23 -185 -26 -26 -34 -28 -105
-28 l-76 0 7 38 c4 20 13 54 20 76 8 21 14 44 14 52 0 7 4 24 10 38 9 24 14
26 73 26 48 0 68 -4 80 -17z"/>
<path d="M3053 2053 c20 -2 37 -6 37 -9 0 -5 -26 -101 -67 -249 -32 -115 -41
-204 -22 -216 22 -14 33 -10 19 6 -13 16 -8 68 14 145 8 25 21 74 31 110 10
36 23 85 30 110 8 25 17 60 20 78 l7 32 -54 -2 c-43 -1 -46 -2 -15 -5z"/>
<path d="M5933 2053 c37 -4 38 -5 32 -36 -4 -18 -12 -52 -20 -77 -7 -25 -20
-74 -30 -110 -9 -36 -24 -85 -31 -109 -13 -41 -20 -141 -10 -141 2 0 13 -3 23
-7 16 -6 16 -5 4 10 -9 11 -11 29 -7 54 7 39 57 231 81 313 8 25 17 60 20 78
l7 32 -54 -2 c-44 -1 -47 -2 -15 -5z"/>
<path d="M4033 2043 c-7 -3 -13 -15 -13 -28 0 -24 16 -35 38 -28 6 3 12 13 12
23 0 21 -20 39 -37 33z"/>
<path d="M7533 2043 c-17 -6 -16 -50 1 -56 15 -6 36 11 36 29 0 16 -22 32 -37
27z"/>
<path d="M5163 2024 c-3 -8 2 -23 11 -32 15 -15 17 -15 32 0 21 21 11 48 -16
48 -11 0 -23 -7 -27 -16z"/>
<path d="M3259 1847 c-48 -43 -70 -88 -76 -156 -5 -56 8 -111 26 -111 5 0 7
18 4 39 -9 70 31 195 77 241 33 33 8 22 -31 -13z"/>
<path d="M3647 1857 c3 -13 -11 -61 -31 -109 -38 -93 -43 -124 -23 -151 10
-15 12 -13 14 15 1 18 15 64 32 101 33 73 40 137 17 156 -11 9 -12 7 -9 -12z"/>
<path d="M3796 1813 c-11 -38 -25 -77 -33 -88 -7 -11 -13 -35 -13 -54 0 -32
-19 -109 -43 -176 -7 -16 -23 -41 -37 -54 -19 -18 -20 -21 -5 -13 59 30 80 77
140 310 40 153 39 142 22 142 -7 0 -21 -30 -31 -67z"/>
<path d="M3995 1842 c-1 -21 -15 -72 -33 -114 -18 -42 -32 -85 -32 -95 0 -22
27 -63 41 -63 6 0 4 7 -5 15 -17 17 -12 39 28 129 28 63 34 137 14 154 -10 8
-13 2 -13 -26z"/>
<path d="M4202 1873 c9 -2 18 -10 21 -16 4 -11 -18 -114 -41 -188 -22 -72 -23
-89 -7 -89 8 0 17 12 21 28 3 15 13 44 21 65 9 21 16 45 16 55 -1 9 3 35 9 57
12 54 -3 95 -34 94 -16 -1 -18 -3 -6 -6z"/>
<path d="M4397 1861 c3 -11 -3 -36 -12 -58 -9 -21 -23 -53 -31 -72 -21 -47
-28 -115 -15 -137 9 -17 10 -16 11 8 0 14 14 56 30 93 30 67 42 167 21 179 -5
4 -7 -3 -4 -13z"/>
<path d="M4609 1850 c-48 -39 -89 -126 -89 -190 0 -41 4 -52 26 -69 15 -12 34
-21 43 -21 10 0 7 5 -9 13 -18 9 -26 22 -28 46 -5 48 35 170 69 214 17 20 29
37 27 37 -2 0 -20 -13 -39 -30z"/>
<path d="M5147 1862 c3 -13 -10 -58 -31 -111 -36 -90 -44 -134 -26 -161 8 -12
10 -9 10 12 0 14 14 57 31 95 33 72 43 153 22 174 -9 9 -11 7 -6 -9z"/>
<path d="M5355 1866 c18 -13 18 -17 -9 -122 -39 -148 -42 -168 -25 -162 8 3
16 13 17 24 4 19 26 74 43 107 6 11 6 17 -1 17 -6 0 -6 9 0 26 23 59 8 124
-29 124 -11 0 -10 -3 4 -14z"/>
<path d="M5537 1854 c3 -18 -7 -54 -26 -97 -22 -50 -31 -84 -31 -123 0 -30 2
-54 4 -54 2 0 13 -3 23 -6 17 -5 17 -5 1 6 -24 15 -23 27 13 107 37 82 47 150
26 177 -13 18 -14 17 -10 -10z"/>
<path d="M6129 1831 c-37 -39 -50 -61 -59 -104 -12 -51 -11 -59 10 -101 12
-25 26 -46 32 -46 6 0 5 6 -2 15 -15 18 -15 70 -1 143 11 56 37 101 74 127 13
9 16 15 7 15 -7 0 -35 -22 -61 -49z"/>
<path d="M6239 1871 c10 -7 12 -22 8 -57 -4 -43 -4 -47 9 -29 26 35 12 95 -20
95 -6 0 -5 -4 3 -9z"/>
<path d="M6438 1862 c-61 -40 -98 -114 -98 -195 0 -39 5 -58 18 -70 16 -15 17
-12 18 51 2 78 23 142 65 195 34 42 34 43 -3 19z"/>
<path d="M6783 1874 c27 -8 24 -39 -22 -206 -25 -92 -25 -88 -7 -88 8 0 19 20
27 48 7 26 20 65 29 87 13 30 15 56 11 100 -6 55 -8 60 -31 62 -14 1 -18 0 -7
-3z"/>
<path d="M6919 1871 c10 -7 11 -13 1 -31 -16 -29 2 -50 28 -34 36 23 21 74
-22 74 -15 0 -17 -3 -7 -9z"/>
<path d="M7083 1873 c22 -6 22 -27 -4 -121 -47 -175 -47 -172 -33 -172 18 0
66 133 71 198 6 77 -2 102 -30 101 -17 -1 -18 -2 -4 -6z"/>
<path d="M7267 1857 c3 -14 -9 -56 -26 -97 -42 -98 -49 -145 -26 -170 10 -11
23 -20 28 -20 6 0 2 6 -8 14 -18 13 -18 17 18 107 39 98 47 159 23 178 -11 9
-12 7 -9 -12z"/>
<path d="M7497 1859 c3 -16 -8 -56 -28 -104 -46 -111 -44 -185 6 -185 6 1 2 5
-7 11 -24 14 -23 23 17 119 37 92 43 135 21 165 -13 19 -14 18 -9 -6z"/>
<path d="M7703 1874 c22 -7 22 -40 -3 -129 -31 -109 -41 -157 -35 -163 9 -9
22 10 47 73 18 46 23 79 23 140 0 78 -1 80 -25 82 -14 1 -18 0 -7 -3z"/>
<path d="M7889 1866 c10 -12 5 -33 -23 -103 -19 -48 -38 -99 -41 -113 -6 -28
13 -72 33 -76 7 -1 8 0 2 3 -18 9 -10 60 20 128 36 81 41 175 8 175 -6 0 -6
-6 1 -14z"/>
<path d="M8110 1854 c-69 -59 -112 -205 -74 -252 l19 -23 1 66 c2 77 24 145
66 198 34 44 31 47 -12 11z"/>
<path d="M3410 1845 c-5 -14 -14 -25 -18 -25 -5 0 -13 -23 -16 -52 -4 -28 -14
-64 -22 -80 -8 -16 -10 -28 -4 -28 5 0 10 -15 10 -33 0 -31 14 -57 32 -57 5 0
3 9 -4 19 -12 20 -6 60 27 171 23 76 28 110 16 110 -7 0 -16 -11 -21 -25z"/>
<path d="M4754 1845 c-3 -14 -10 -25 -15 -25 -5 0 -9 -8 -9 -18 0 -11 -9 -44
-20 -76 -10 -31 -17 -63 -14 -70 6 -14 -26 -129 -47 -169 -6 -12 -21 -32 -32
-44 -11 -13 -18 -23 -14 -23 13 0 55 47 75 85 18 35 41 100 55 160 10 42 46
171 53 188 4 12 1 17 -10 17 -8 0 -18 -11 -22 -25z"/>
<path d="M6574 1845 c-3 -14 -10 -25 -15 -25 -5 0 -9 -6 -9 -14 0 -7 -8 -40
-18 -72 -20 -62 -19 -143 2 -156 19 -13 29 -9 17 6 -16 20 -4 85 45 244 11 36
11 42 -1 42 -8 0 -17 -11 -21 -25z"/>
<path d="M8254 1848 c-4 -13 -10 -25 -13 -28 -10 -7 -46 -142 -44 -160 4 -31
-39 -157 -69 -200 -26 -39 -27 -42 -7 -25 45 38 72 83 89 150 4 17 18 66 30
110 48 173 48 175 34 175 -7 0 -16 -10 -20 -22z"/>
<path d="M3238 1573 c7 -3 16 -2 19 1 4 3 -2 6 -13 5 -11 0 -14 -3 -6 -6z"/>
<path d="M6138 1573 c7 -3 16 -2 19 1 4 3 -2 6 -13 5 -11 0 -14 -3 -6 -6z"/>
<path d="M6398 1573 c7 -3 16 -2 19 1 4 3 -2 6 -13 5 -11 0 -14 -3 -6 -6z"/>
<path d="M8078 1573 c7 -3 16 -2 19 1 4 3 -2 6 -13 5 -11 0 -14 -3 -6 -6z"/>
<path d="M3535 1480 c-3 -10 0 -30 7 -42 l13 -23 3 23 c2 12 8 22 13 22 5 0 9
9 9 20 0 26 -36 27 -45 0z"/>
<path d="M4487 1493 c-12 -12 -7 -40 11 -62 17 -21 17 -21 19 24 2 43 -10 58
-30 38z"/>
<path d="M7987 1493 c-14 -14 -6 -51 15 -69 13 -11 18 -12 11 -3 -10 12 -9 20
3 37 8 12 12 27 9 32 -7 11 -28 13 -38 3z"/>
</g>
</svg>
